<svg width="1577" height="1080" viewBox="0 0 1577 1080" fill="none" xmlns="http://www.w3.org/2000/svg">
<path fill-rule="evenodd" clip-rule="evenodd" d="M1088.96 -113.813C1047.74 152.347 1047.47 152.368 1047.75 154.064C1049.02 161.869 1054.96 164.902 1055.96 165.406C1056.2 165.535 1056.18 165.652 1133.45 177.829C1151.07 180.607 1161.02 183.352 1167.28 178.421C1171.5 175.106 1171.22 174.135 1205.11 -44.3283C1210.7 -80.3571 1210.76 -80.211 1212.96 -94.5525C1216.33 -116.385 1203.98 -114.582 1173.85 -119.228C1100.77 -130.504 1099.54 -131.666 1092.84 -126.099C1089.96 -123.708 1091 -123.095 1088.96 -113.813Z" fill="#FBFDFC" fill-opacity="0.05"/>
<path fill-rule="evenodd" clip-rule="evenodd" d="M616.034 932.492C588.579 959.432 544.655 1004.93 536.544 1012.61C534.163 1014.86 527.393 1021.26 508.119 1042.09C498.596 1052.38 510.357 1059.1 540.956 1090.14C544.275 1093.51 581.449 1131.21 582.746 1131.95C589.284 1135.69 594.284 1132.96 602.65 1124.48C617.856 1109.07 792.654 931.921 792.678 931.879C800.351 918.883 782.531 911.085 747.302 873.385C742.431 868.173 717.039 843.447 716.208 843.043C704.006 837.14 704.714 845.052 664.276 883.409C640.895 905.586 642.483 907.016 619.171 929.221C618.076 930.264 617.124 931.449 616.034 932.492Z" fill="#FBFDFC" fill-opacity="0.05"/>
<path fill-rule="evenodd" clip-rule="evenodd" d="M828.708 -97.8006C826.968 -97.3327 807.594 -92.1868 806.968 -91.8893C804.842 -90.8806 799.33 -84.1849 800.01 -79.3202C800.28 -77.3962 823.556 5.87008 827.409 22.9252C829.054 30.2221 829.749 29.9294 851.918 113.104C855.586 126.876 865.405 162.481 867.663 171.84C872.045 190.001 873.709 200.476 890.506 195.909C980.004 171.565 980.167 171.985 987.491 168.608C998.862 163.364 989.233 142.707 988.066 138.385C987.309 135.596 981.097 108.473 969.346 67.4204C968.303 63.7978 960.769 35.1829 927.833 -86.4723C921.69 -109.162 921.672 -114.88 917.281 -117.283C908.318 -122.197 907.634 -118.631 828.708 -97.8006Z" fill="#FBFDFC" fill-opacity="0.05"/>
<path fill-rule="evenodd" clip-rule="evenodd" d="M1746.16 451.257C1742.82 430.043 1743.1 430.08 1742.76 428.254C1740.29 414.887 1742.33 404.661 1718.44 408.688C1621.48 425.026 1621.48 424.238 1613.08 425.737C1489.69 447.677 1456.59 449.779 1450.77 453.327C1445.25 456.691 1446.82 466.779 1447.01 467.975C1451.58 497.401 1450.84 497.463 1453.01 508.658C1460.93 549.396 1461.33 568.54 1465.64 572.854C1468.92 576.137 1470.55 577.762 1523.33 568.286C1569.32 560.028 1588.44 557.92 1591.92 557.293C1671.37 542.929 1745.24 533.887 1752.69 528.87C1760.9 523.342 1755.77 520.734 1746.16 451.257Z" fill="#FBFDFC" fill-opacity="0.05"/>
<path fill-rule="evenodd" clip-rule="evenodd" d="M1365.17 198.567C1370.58 190.265 1419.14 115.735 1432.39 94.5315C1475.41 25.6689 1480.2 26.3554 1477.73 14.9491C1477.47 13.7415 1476.86 10.9473 1466.6 4.36763C1409.95 -31.9764 1410.15 -32.2308 1405.09 -35.1665C1390.04 -43.9035 1386.06 -49.795 1378.14 -47.9971C1369.63 -46.074 1347.74 -2.60971 1316.17 42.6134C1309.99 51.4591 1292.08 81.9394 1287.86 87.7832C1279.64 99.1782 1232.41 173.88 1227.65 181.408C1219 195.076 1216.72 198.869 1230.08 207.886C1245.49 218.279 1245.67 217.912 1251.25 221.649C1256.23 224.985 1310.29 261.213 1314.2 262.191C1316.29 262.709 1323.87 261.037 1325.15 259.948C1328.87 256.784 1362.07 203.542 1365.17 198.567Z" fill="#FBFDFC" fill-opacity="0.05"/>
<path fill-rule="evenodd" clip-rule="evenodd" d="M569.061 99.224C585.031 119.131 727.34 295.12 729.439 296.778C738.163 303.669 749.314 290.595 765.916 277.159C770.374 273.555 820.12 233.302 821.534 232C832.443 221.949 821.537 211.916 813.149 201.531C788.108 170.504 788.578 170.228 763.102 139.584C759.63 135.407 759.951 135.24 720.309 86.8912C701.661 64.1429 679.692 35.0676 672.704 27.8398C671.144 26.2307 670.295 25.3554 654.968 6.10831C645.328 -5.99843 642.044 -7.28571 630.065 2.50807C585.057 39.2915 584.674 39.598 580.692 42.7786C551.561 66.0312 551.279 68.3215 550.87 71.6215C550.128 77.6844 561.938 90.3736 569.061 99.224Z" fill="#FBFDFC" fill-opacity="0.05"/>
<path fill-rule="evenodd" clip-rule="evenodd" d="M1401.91 1139.99C1394.43 1124.99 1299.68 939.412 1298.76 937.989C1289.79 924.024 1285.41 928.194 1259.33 941.87C1196.82 974.645 1196.63 974.141 1191.32 977.213C1178.51 984.612 1189.46 998.45 1191.07 1001.95C1193.9 1008.14 1193.99 1008.07 1212.83 1045.38C1215.65 1050.95 1312.05 1239.77 1312.24 1240.07C1314.93 1244.28 1320.07 1244.79 1320.86 1244.87C1324.14 1245.2 1325.2 1245.3 1358.22 1227.26C1362.1 1225.13 1415.83 1198.25 1419.08 1195.47C1427.68 1188.14 1425.29 1184.66 1401.91 1139.99Z" fill="#FBFDFC" fill-opacity="0.05"/>
<path fill-rule="evenodd" clip-rule="evenodd" d="M1492.9 212.666C1456.58 237.468 1456.16 236.585 1416.34 263.247C1404.04 271.481 1366.22 294.604 1363.18 299.9C1358.78 307.569 1364.29 313.228 1372.22 324.989C1417.37 392.016 1415.21 393.387 1419.87 398.634C1428.63 408.528 1440.18 396.826 1449.88 390.934C1460.89 384.245 1546.68 327.2 1570.07 312.164C1607.1 288.363 1606.55 287.672 1643.51 263.758C1667.44 248.279 1677.69 246.338 1665.61 227.973C1643.68 194.625 1644.02 194.512 1621.79 161.369C1611.98 146.754 1609.78 135.337 1592.98 146.763C1586.38 151.248 1585.9 150.275 1509.86 201.848C1508.53 202.752 1508.52 202.516 1492.9 212.666Z" fill="#FBFDFC" fill-opacity="0.05"/>
<path fill-rule="evenodd" clip-rule="evenodd" d="M1580.5 933.327C1563.72 920.163 1560.43 917.24 1558.76 915.751C1549.74 907.716 1528.08 891.204 1523.4 887.286C1508.31 874.649 1463.32 838.741 1462.59 838.101C1462.11 837.684 1436.4 816.711 1433.31 814.384C1420.91 805.035 1415.9 797.898 1407.36 800.297C1403.69 801.324 1402.84 801.564 1375.55 835.924C1336.01 885.717 1334.97 885.71 1334.92 891.201C1334.9 894.137 1334.88 897 1360.55 917.263C1394.37 943.955 1393.69 944.655 1427.34 971.435C1543.47 1063.86 1542.3 1065.17 1552.92 1072.46C1563.64 1079.82 1568.21 1073.03 1577.98 1060.93C1581.53 1056.53 1611.27 1019.71 1622.19 1005.76C1627.3 999.238 1639.84 987.763 1634.87 978.006C1634.41 977.093 1633.91 975.814 1580.5 933.327Z" fill="#FBFDFC" fill-opacity="0.05"/>
<path fill-rule="evenodd" clip-rule="evenodd" d="M1587.84 660.821C1534.77 648.218 1535.24 646.644 1516.45 641.789C1468.2 629.31 1467.2 630.093 1463.83 632.726C1460.04 635.685 1454.14 659.19 1440.7 712.707C1436.52 729.345 1431.35 740.836 1436.29 748.158C1439.37 752.72 1450.31 754.743 1458.91 756.976C1583.63 789.298 1626.27 802.115 1655.75 809.411C1709.52 822.717 1713.78 826.793 1720.24 818.426C1721.85 816.342 1728.64 789.109 1729.28 786.537C1745.81 720.286 1747.24 720.754 1748.28 714.914C1748.49 713.745 1749.94 705.572 1740.75 702.145C1730.82 698.447 1590.16 661.416 1587.84 660.821Z" fill="#FBFDFC" fill-opacity="0.05"/>
<path fill-rule="evenodd" clip-rule="evenodd" d="M774.019 1129.82C771.982 1135.5 771.938 1135.45 747.532 1200.4C743.236 1211.84 737.385 1223.66 738.473 1227.25C739.217 1229.72 739.9 1234.3 763.312 1242.96C795.381 1254.8 795.092 1255.38 827.279 1266.91C843.399 1272.68 843.261 1272.72 844.08 1272.8C853.26 1273.68 856.932 1264.49 857.417 1263.28C864.911 1244.54 890.679 1172.39 900.845 1149.26C901.865 1146.95 939.724 1044.59 947.165 1025.82C955.746 1004.18 961.377 996.61 939.433 989.196C916.781 981.546 885.305 968.849 880.64 966.97C875.558 964.917 848.587 954.915 848.073 954.961C837.484 955.904 832.719 975.689 826.917 989.868C820.633 1005.21 795.268 1073.85 792.567 1081.17C789.754 1088.77 787.463 1092.64 783.911 1102.77C779.136 1116.38 779.043 1116.22 774.019 1129.82Z" fill="#FBFDFC" fill-opacity="0.05"/>
<path fill-rule="evenodd" clip-rule="evenodd" d="M1137.43 1083.06C1137.41 1082.18 1137.23 1071.98 1137.23 1071.98C1132.93 1006.89 1134.17 1006.43 1131.21 1002.06C1125.28 993.304 1122.41 998.099 1022.53 1002.63C1021.56 1002.67 1014.31 1003 1011.17 1007.1C1008.71 1010.31 1007.72 1011.6 1010.56 1057.64C1013.62 1106.93 1014.06 1106.8 1015.86 1156.16C1016.81 1182.29 1018.12 1182.08 1019.25 1208.15C1019.54 1214.62 1022.07 1272.97 1023.39 1288.98C1023.47 1289.9 1024.01 1296.47 1028.62 1299.3C1034.93 1303.2 1035.58 1301.17 1113.46 1297.53C1137.22 1296.42 1148.96 1297.81 1148.29 1280.07C1148.17 1276.78 1147.09 1248.1 1146.39 1239.06C1143.48 1201.45 1144.81 1201.47 1142.09 1163.87C1139.18 1123.41 1140.13 1123.46 1137.43 1083.06Z" fill="#FBFDFC" fill-opacity="0.05"/>
<path fill-rule="evenodd" clip-rule="evenodd" d="M1536.46 66.1517C1585.1 113.539 1584.49 122.07 1594.32 115.684C1601.46 111.043 1622.97 86.6191 1640.56 69.6656C1641.53 68.734 1790.8 -81.6497 1793.36 -85.1708C1800.33 -94.7479 1788.6 -101.824 1767.49 -124.365C1764.66 -127.383 1764.36 -126.961 1730.82 -160.835C1729.84 -161.828 1720.44 -171.312 1717.97 -172.708C1706.25 -179.319 1703.54 -171.136 1690.6 -158.953C1673.87 -143.214 1617.88 -85.0928 1596.78 -64.4386C1559.22 -27.6725 1560.6 -26.4163 1522.97 10.1955C1503.71 28.9328 1501.67 33.7597 1508.92 40.9657C1511.04 43.0727 1511.75 42.2501 1536.46 66.1517Z" fill="#FBFDFC" fill-opacity="0.05"/>
<path fill-rule="evenodd" clip-rule="evenodd" d="M452.207 26.1255C446.143 21.3063 446.362 21.2145 440.282 16.3472C410.799 -7.28127 411.047 -7.4488 381.653 -31.109C306.302 -91.7535 306.344 -93.3485 299.153 -93.1772C296.308 -93.1094 294.691 -93.0685 274.467 -67.3987C227.069 -7.25241 224.622 -7.76363 225.247 -1.40872C225.854 4.69179 226.862 5.23719 248.238 22.5797C392.359 139.53 392.589 139.222 404.984 149.56C443.079 181.326 445.512 181.383 449.917 181.488C460.18 181.731 460.479 165.423 522.194 96.6289C522.771 95.9919 527.238 91.0048 525.031 86.2291C523.795 83.5548 514.166 75.9286 513.147 75.1241C477.177 46.6397 477.771 46.0054 452.207 26.1255Z" fill="#FBFDFC" fill-opacity="0.05"/>
<path fill-rule="evenodd" clip-rule="evenodd" d="M371.193 954.635C360.251 961.781 284.608 1011.15 234.732 1044.46C175.074 1084.3 171.138 1083.52 172.015 1093.82C172.301 1097.22 173.107 1097.02 225.723 1177.81C233.656 1189.98 235.901 1192.9 248.441 1185.55C256.824 1180.63 384.212 1096.13 418.677 1073.75C425.093 1069.58 436.895 1061.56 438.467 1060.49C470.711 1038.55 487.038 1035.99 475.468 1019.15C469.704 1010.78 451.856 988.417 425.116 942.591C418.139 930.634 415.304 925.503 397.552 936.89C384.127 945.51 384.673 946.098 371.193 954.635Z" fill="#FBFDFC" fill-opacity="0.05"/>
</svg>
