<svg width="58" height="61" viewBox="0 0 58 61" fill="none" xmlns="http://www.w3.org/2000/svg">
<path fill-rule="evenodd" clip-rule="evenodd" d="M32.428 9.2271C32.4258 17.3791 32.4337 17.381 32.4176 17.4304C32.3434 17.658 32.1515 17.7211 32.1194 17.7315C32.1115 17.7343 32.1115 17.7379 29.7439 17.7435C29.2042 17.7449 28.8939 17.7808 28.7293 17.6042C28.6185 17.4855 28.6316 17.4578 28.6316 10.7664C28.6316 9.66287 28.6292 9.66698 28.6297 9.22779C28.6304 8.55916 28.9912 8.67037 29.9139 8.67123C32.1522 8.67311 32.1943 8.64402 32.3689 8.84163C32.4438 8.9265 32.4099 8.94001 32.428 9.2271Z" fill="white"/>
<path fill-rule="evenodd" clip-rule="evenodd" d="M41.7176 42.7164C42.4138 43.6496 43.5164 45.2142 43.7234 45.4814C43.7842 45.5598 43.9569 45.7827 44.4368 46.4952C44.6739 46.8471 44.2909 46.9937 43.2317 47.78C43.1168 47.8652 41.83 48.8204 41.7877 48.8365C41.5748 48.9181 41.438 48.8133 41.2271 48.5209C40.8438 47.9895 36.4377 41.8798 36.4372 41.8784C36.268 41.4541 36.8372 41.3036 38.0657 40.3395C38.2356 40.2062 39.1098 39.5844 39.1365 39.5762C39.5289 39.4563 39.471 39.6897 40.5025 41.0245C41.0989 41.7963 41.0448 41.8317 41.639 42.604C41.6669 42.6403 41.6899 42.6802 41.7176 42.7164Z" fill="white"/>
<path fill-rule="evenodd" clip-rule="evenodd" d="M40.1376 10.9135C40.1875 10.9355 40.7431 11.1794 40.7604 11.1912C40.8193 11.2312 40.9531 11.457 40.9102 11.5994C40.8932 11.6557 39.8106 14.0381 39.6163 14.5303C39.5332 14.741 39.5138 14.729 38.4648 17.1138C38.2912 17.5087 37.8323 18.5281 37.7213 18.7975C37.506 19.3204 37.4076 19.6259 36.9264 19.4114C34.3625 18.268 34.3557 18.2798 34.1523 18.1448C33.8366 17.9352 34.2204 17.3621 34.2754 17.2382C34.3109 17.1583 34.6226 16.3759 35.1646 15.2026C35.2126 15.099 35.5707 14.2782 37.1203 10.7923C37.4093 10.1422 37.4364 9.97128 37.5788 9.91978C37.8697 9.81439 37.8736 9.92423 40.1376 10.9135Z" fill="white"/>
<path fill-rule="evenodd" clip-rule="evenodd" d="M10.1495 23.0784C10.3478 22.4594 10.3395 22.4592 10.358 22.4062C10.4938 22.0178 10.4802 21.7025 11.1762 21.9338C14.0005 22.8724 14.0039 22.8488 14.2484 22.9326C17.8371 24.1614 18.8172 24.3778 18.9748 24.5109C19.1244 24.6372 19.0306 24.9316 19.0196 24.9665C18.7462 25.8254 18.768 25.8307 18.6511 26.1555C18.2252 27.3372 18.1246 27.9079 17.9755 28.0169C17.8621 28.0999 17.806 28.141 16.2713 27.6126C14.934 27.1522 14.3721 27.0005 14.2708 26.9656C11.9611 26.1673 9.79377 25.5541 9.59428 25.3695C9.37437 25.166 9.53981 25.1118 10.1495 23.0784Z" fill="white"/>
<path fill-rule="evenodd" clip-rule="evenodd" d="M22.7169 17.2886C22.5937 17.0152 21.4872 14.5607 21.1893 13.8651C20.2222 11.6058 20.0756 11.6041 20.2024 11.2744C20.2159 11.2395 20.247 11.1588 20.5844 11.0096C22.4475 10.1854 22.4426 10.1769 22.6075 10.1125C23.0984 9.9211 23.2448 9.76335 23.4732 9.85386C23.7188 9.95087 24.1719 11.3524 24.9064 12.8515C25.0502 13.1448 25.4442 14.1395 25.5433 14.3339C25.7363 14.7128 26.8024 17.1663 26.9098 17.4135C27.105 17.8625 27.1557 17.9865 26.7142 18.1942C26.2053 18.4336 26.2015 18.4218 26.0173 18.5076C25.8529 18.5843 24.0677 19.417 23.9464 19.4281C23.8815 19.4339 23.6625 19.3487 23.6293 19.3102C23.5328 19.1983 22.7867 17.4518 22.7169 17.2886Z" fill="white"/>
<path fill-rule="evenodd" clip-rule="evenodd" d="M46.9891 18.0113C46.4191 18.5326 41.3461 23.136 41.2756 23.1759C40.9827 23.3415 40.7098 22.8987 40.2756 22.4198C40.159 22.2913 38.8579 20.8566 38.8217 20.8111C38.542 20.4598 38.9148 20.2104 39.2139 19.9387C40.1068 19.1268 40.094 19.1164 40.9982 18.3181C41.1214 18.2093 41.1126 18.2028 42.5226 16.9406C43.1859 16.3468 43.9779 15.5791 44.2205 15.3953C44.2746 15.3544 44.304 15.3322 44.8518 14.8277C45.1963 14.5103 45.3004 14.487 45.6133 14.8355C46.7888 16.1445 46.7988 16.1555 46.9032 16.2691C47.6666 17.0997 47.6643 17.1696 47.6613 17.2702C47.6553 17.4549 47.2432 17.7797 46.9891 18.0113Z" fill="white"/>
<path fill-rule="evenodd" clip-rule="evenodd" d="M17.2499 45.2755C17.543 44.8619 21.2381 39.7509 21.2721 39.7125C21.6052 39.3365 21.7171 39.4816 22.4335 40.0116C24.1511 41.2819 24.1591 41.2677 24.3036 41.3843C24.6525 41.665 24.2607 42.0281 24.1965 42.1254C24.083 42.2974 24.0808 42.2948 23.3441 43.3232C23.234 43.4769 19.4744 48.6768 19.4672 48.6851C19.3675 48.7985 19.2112 48.7899 19.1874 48.7886C19.0876 48.7833 19.0555 48.7814 18.1516 48.0886C18.0454 48.007 16.5632 46.9536 16.4786 46.8554C16.2557 46.5964 16.3433 46.5033 17.2499 45.2755Z" fill="white"/>
<path fill-rule="evenodd" clip-rule="evenodd" d="M18.8313 17.1174C19.8027 18.0278 19.8194 18.0034 20.8866 18.9856C21.2163 19.2889 22.2401 20.156 22.3063 20.3285C22.4023 20.5783 22.2113 20.722 21.9198 21.037C20.2583 22.8322 20.3164 22.8832 20.1528 23.0185C19.8447 23.2738 19.5537 22.8702 19.2909 22.649C18.9926 22.3978 16.6914 20.2936 16.0614 19.7353C15.0645 18.8516 15.0841 18.8335 14.0895 17.9467C13.4456 17.3727 13.1483 17.2672 13.5947 16.7739C14.4054 15.8782 14.3957 15.8733 15.2145 14.9851C15.5755 14.5935 15.6945 14.2623 16.1438 14.682C16.3203 14.8467 16.3394 14.8199 18.3743 16.7152C18.4098 16.7484 18.4112 16.7414 18.8313 17.1174Z" fill="white"/>
<path fill-rule="evenodd" clip-rule="evenodd" d="M12.8673 38.2659C13.4304 37.9501 13.5422 37.8779 13.5991 37.8411C13.9061 37.6426 14.6307 37.2493 14.7888 37.1538C15.2988 36.8459 16.8111 35.9807 16.836 35.9649C16.8521 35.9547 17.7185 35.4467 17.8217 35.3914C18.2359 35.1693 18.4188 34.9791 18.6632 35.0905C18.768 35.1382 18.7924 35.1493 19.4492 36.3037C20.4009 37.9764 20.432 37.9811 20.4078 38.1455C20.3949 38.2334 20.3823 38.3191 19.5204 38.8061C18.3851 39.4475 18.4022 39.4716 17.2715 40.1164C13.3691 42.342 13.3982 42.3867 13.0465 42.5553C12.6918 42.7256 12.5866 42.5015 12.3505 42.0941C12.2648 41.9459 11.5463 40.7069 11.2842 40.2389C11.1616 40.0201 10.8399 39.6187 11.0338 39.35C11.0518 39.3248 11.0728 39.2889 12.8673 38.2659Z" fill="white"/>
<path fill-rule="evenodd" clip-rule="evenodd" d="M13.9123 30.0811C15.5579 29.9504 15.5511 29.9011 16.1356 29.8431C17.6367 29.6938 17.6629 29.7218 17.7518 29.8163C17.8514 29.9223 17.9188 30.6527 18.0723 32.3157C18.1201 32.8328 18.2214 33.2005 18.0396 33.3965C17.9264 33.5187 17.5899 33.5284 17.3222 33.5553C13.442 33.9433 12.1071 34.1288 11.1915 34.2102C9.52172 34.3587 9.37534 34.4609 9.22095 34.1806C9.18249 34.1108 9.10555 33.2648 9.0984 33.1849C8.91151 31.1267 8.86641 31.134 8.86249 30.9545C8.86181 30.9186 8.85636 30.6674 9.14708 30.6076C9.46129 30.5431 13.84 30.0881 13.9123 30.0811Z" fill="white"/>
<path fill-rule="evenodd" clip-rule="evenodd" d="M36.077 47.8854C36.1116 48.0647 36.1131 48.0636 36.5417 50.1195C36.6171 50.4815 36.7373 50.8622 36.6881 50.9645C36.6544 51.0348 36.6127 51.1688 35.8723 51.319C34.8582 51.5245 34.8641 51.5431 33.8479 51.7385C33.339 51.8364 33.3429 51.8382 33.3181 51.8369C33.0394 51.8205 32.9722 51.5287 32.9634 51.4901C32.8262 50.8949 32.3903 48.6173 32.1935 47.8785C32.1737 47.8044 31.5164 44.5672 31.3809 43.9715C31.2247 43.2844 31.0914 43.0319 31.7821 42.9119C32.4951 42.7882 33.4954 42.5545 33.6437 42.5199C33.8052 42.4821 34.6583 42.3081 34.6735 42.3119C34.9858 42.3892 35.0365 43.0031 35.1443 43.4541C35.261 43.9421 35.7012 46.1127 35.748 46.3442C35.7969 46.5847 35.8474 46.7112 35.9067 47.0306C35.9863 47.4599 35.9899 47.4552 36.077 47.8854Z" fill="white"/>
<path fill-rule="evenodd" clip-rule="evenodd" d="M25.4243 44.8004C25.4289 44.7741 25.4816 44.4699 25.4816 44.4699C25.9125 42.5429 25.8774 42.5234 25.9862 42.4064C26.2042 42.1721 26.2677 42.3289 29.2341 42.9279C29.2631 42.9337 29.4784 42.9771 29.5533 43.1143C29.6118 43.2216 29.6355 43.2649 29.3368 44.6288C29.0168 46.0888 29.004 46.0829 28.7213 47.5509C28.5717 48.3278 28.5334 48.3155 28.3785 49.09C28.34 49.2822 27.9935 51.0158 27.8796 51.4884C27.8731 51.5156 27.8263 51.7094 27.6755 51.7729C27.4687 51.8602 27.4585 51.7964 25.146 51.3262C24.4406 51.1827 24.083 51.1698 24.1853 50.6423C24.2042 50.5447 24.3695 49.6918 24.4325 49.4245C24.6939 48.3133 24.6542 48.3076 24.9099 47.1955C25.1848 45.9991 25.1562 45.9962 25.4243 44.8004Z" fill="white"/>
<path fill-rule="evenodd" clip-rule="evenodd" d="M18.2081 12.5332C16.5336 13.7249 16.5123 13.9829 16.248 13.7463C16.0558 13.5743 15.5259 12.744 15.0783 12.1553C15.0537 12.1229 11.2868 6.93239 11.2265 6.81519C11.0628 6.49645 11.4463 6.33922 12.1823 5.76298C12.2808 5.68582 12.288 5.69985 13.4483 4.84234C13.4824 4.81719 13.8075 4.57715 13.8878 4.54687C14.2689 4.40349 14.312 4.66081 14.6427 5.08529C15.0699 5.63364 16.4748 7.63181 17.0102 8.34748C17.963 9.62143 17.9157 9.65256 18.8714 10.9222C19.3606 11.572 19.3991 11.7258 19.1487 11.9077C19.0757 11.9609 19.0583 11.933 18.2081 12.5332Z" fill="white"/>
<path fill-rule="evenodd" clip-rule="evenodd" d="M5.41886 17.926C3.41224 16.7309 3.34194 16.7799 3.27318 16.56C3.23965 16.4527 3.32935 16.2553 3.34041 16.231C3.45037 15.9889 4.21496 14.7093 4.29325 14.5783C4.8524 13.6426 4.88542 13.3741 5.24899 13.4455C5.32474 13.4603 6.46226 14.1204 6.79043 14.3167C8.96369 15.6163 8.98241 15.5757 9.16896 15.6922C9.73627 16.0462 12.3553 17.541 12.4043 17.572C12.8511 17.8541 12.7863 17.9866 12.4968 18.43C11.2522 20.336 11.3007 20.6417 11.0648 20.9028C10.8437 21.1476 10.548 20.898 10.3764 20.7993C7.50974 19.1476 7.52029 19.1296 7.26753 18.9922C7.11774 18.9106 7.10651 18.9045 5.41886 17.926Z" fill="white"/>
<path fill-rule="evenodd" clip-rule="evenodd" d="M8.12084 29.8146C7.89004 29.7947 6.02282 29.6347 5.23934 29.5251C4.24156 29.3853 1.52754 29.1328 1.14728 29.0831C0.331121 28.9769 0.0472093 29.0162 0.00397559 28.7232C-0.0241093 28.5322 0.105931 27.3123 0.119038 27.1902C0.311547 25.3831 0.303208 25.3451 0.440568 25.2736C0.734693 25.1205 0.975372 25.2505 1.82643 25.3335C4.18556 25.5638 4.18198 25.5876 4.38726 25.6038C6.05788 25.7363 6.98417 25.8901 8.46399 26.0268C9.09667 26.0851 9.35896 26.0367 9.25803 26.6675C9.03948 28.0333 9.07182 28.0342 8.96543 29.4144C8.92101 29.9903 8.69326 29.8645 8.12084 29.8146Z" fill="white"/>
<path fill-rule="evenodd" clip-rule="evenodd" d="M8.27866 35.5171C8.93619 35.2982 8.93415 35.2947 8.99168 35.2771C9.5081 35.1173 9.54946 35.4278 9.63014 35.7527C9.85652 36.6624 9.96154 36.9001 10.1377 37.4681C10.3335 38.0996 10.6407 38.5236 10.4444 38.7593C10.3995 38.8132 10.3646 38.8551 9.63116 39.0827C7.10829 39.8654 5.03171 40.598 4.35631 40.7987C3.05317 41.1859 2.40416 41.507 2.1531 41.441C2.03293 41.4094 1.97795 41.3948 1.5371 40.0076C0.958551 38.1869 0.90136 38.1682 0.998551 37.9814C1.04587 37.8904 1.08366 37.8178 2.18033 37.4924C3.04228 37.2366 7.28599 35.806 8.27866 35.5171Z" fill="white"/>
<path fill-rule="evenodd" clip-rule="evenodd" d="M27.0285 8.93315C24.5196 9.33282 24.3966 9.7407 24.1882 9.36259C24.1045 9.21049 22.6931 2.32202 22.5489 1.70935C22.5316 1.63543 22.377 1.04705 22.4337 0.846876C22.4842 0.66877 22.5327 0.659531 24.6457 0.205285C25.8243 -0.0479301 25.8759 -0.0169621 25.9673 0.0379581C26.1351 0.138902 26.0733 0.187491 26.3853 1.51687C26.4079 1.61371 26.3972 1.61473 26.6456 2.73264C26.6687 2.83649 27.3816 6.29886 27.385 6.31289C27.6127 7.26056 27.5596 7.27049 27.8064 8.21235C27.9763 8.86078 27.6682 8.84658 27.0285 8.93315Z" fill="white"/>
<path fill-rule="evenodd" clip-rule="evenodd" d="M13.5806 43.7813C14.3495 44.8002 15.5462 45.9325 15.5774 46.0288C15.6817 46.3528 15.4896 46.3143 14.136 47.6093C14.0525 47.6892 13.476 48.2407 13.0574 48.571C12.7771 48.7921 12.8014 48.8159 9.75497 51.574C9.56961 51.7417 9.55854 51.7251 9.37454 51.8935C8.94323 52.2882 8.80604 51.952 7.54307 50.5252C7.42307 50.3897 6.86172 49.7747 6.73729 49.6229C6.48691 49.3173 6.69355 49.2092 7.77762 48.2254C9.44127 46.7159 9.59735 46.5864 9.7611 46.4504C9.96178 46.2839 9.94169 46.2663 12.1716 44.2553C12.7444 43.7386 12.7332 43.7276 12.783 43.683C13.2865 43.232 13.4469 43.6128 13.5806 43.7813Z" fill="white"/>
<path fill-rule="evenodd" clip-rule="evenodd" d="M33.6111 6.65013C33.6625 6.34387 33.6611 6.34576 33.6666 6.31941C33.6834 6.23797 33.8586 5.39278 33.8802 5.30176C34.2839 3.59547 34.6819 1.49208 34.7141 1.36359C34.9975 0.23011 34.8943 -0.10677 35.5224 0.0340376C38.4607 0.692738 38.5428 0.616603 38.623 0.829098C38.7302 1.11328 38.3661 2.38124 38.2335 3.06304C38.1135 3.68016 37.7787 5.26959 37.7384 5.46139C37.6836 5.72127 37.1843 8.09157 37.0403 8.70801C36.8994 9.31213 36.967 9.61531 36.3707 9.44798C36.0019 9.34447 36.0017 9.352 34.8444 9.08236C34.1057 8.91024 33.8077 8.91589 33.4957 8.85395C33.4621 8.84745 33.2417 8.80365 33.2044 8.54103C33.1874 8.42058 33.2531 8.42982 33.6111 6.65013Z" fill="white"/>
<path fill-rule="evenodd" clip-rule="evenodd" d="M46.9868 10.803C45.6224 12.7262 45.5941 12.7053 45.478 12.8742C45.428 12.9473 44.8966 13.7209 44.8285 13.769C44.6209 13.9156 44.3938 13.722 44.3652 13.6975C42.802 12.3637 41.8907 11.9664 41.8197 11.7986C41.6771 11.4601 41.8565 11.4702 42.6154 10.3771C42.8165 10.0873 43.6326 8.91174 45.1982 6.80407C45.2748 6.70107 45.2634 6.69423 46.1371 5.50241C46.7458 4.6721 46.842 4.37355 47.2544 4.64011C47.3943 4.73044 47.3711 4.76192 48.9298 5.87795C49.8235 6.518 49.8298 6.56163 49.8435 6.65693C49.8799 6.91048 49.6332 7.09663 48.486 8.72662C48.0557 9.33792 47.5208 10.0454 46.9868 10.803Z" fill="white"/>
<path fill-rule="evenodd" clip-rule="evenodd" d="M17.3156 57.994C16.9445 57.8178 16.4822 57.6717 16.4288 57.49C16.3588 57.2515 16.5631 56.9427 16.5684 56.9303C17.9542 53.7682 17.9735 53.7804 18.0914 53.5046C18.1951 53.262 19.1702 50.9793 19.4157 50.4836C19.814 49.6797 19.7801 49.1784 20.4228 49.5216C21.6885 50.1976 23.0815 50.7057 23.1436 50.7504C23.4614 50.9786 23.2549 51.1694 22.7452 52.3318C21.0192 56.2672 20.9937 56.2533 20.8478 56.5971C20.4437 57.5487 20.4199 57.5345 20.015 58.4881C19.7998 58.9947 19.6943 59.0644 19.1915 58.8413C19.041 58.7745 17.9168 58.2756 17.3156 57.994Z" fill="white"/>
<path fill-rule="evenodd" clip-rule="evenodd" d="M32.3292 52.6839C32.321 60.6928 32.3639 60.7211 32.2495 60.861C32.1187 61.0208 31.8162 60.9897 29.4036 60.9924C28.9893 60.9929 28.5522 61.0927 28.5403 60.5543C28.5275 59.9796 28.5589 59.9801 28.5403 53.3681C28.5381 52.5693 28.4206 51.9882 28.8918 51.9766C29.2211 51.9684 30.0511 52.0854 31.7862 51.9924C32.3726 51.9609 32.3243 52.196 32.3292 52.6839Z" fill="white"/>
<path fill-rule="evenodd" clip-rule="evenodd" d="M50.8233 16.3672C51.0271 16.2512 51.0209 16.2475 51.2254 16.1301C52.2168 15.5602 52.2102 15.554 53.1991 14.9828C55.7343 13.5186 55.7404 13.4707 55.9547 13.5091C56.0394 13.5244 56.0876 13.5331 56.5734 14.3947C57.7119 16.4136 57.7875 16.4097 57.7393 16.5968C57.6929 16.7765 57.6602 16.7881 56.9404 17.2076C52.0871 20.0368 52.0817 20.0265 51.663 20.2782C50.3762 21.0515 50.3032 21.0419 50.1709 21.0247C49.8628 20.9843 49.9295 20.4951 48.4029 18.1512C48.3886 18.1295 48.2781 17.9596 48.3663 17.827C48.4157 17.7527 48.7391 17.5693 48.7733 17.55C49.9813 16.8649 49.9665 16.8432 50.8233 16.3672Z" fill="white"/>
<path fill-rule="evenodd" clip-rule="evenodd" d="M41.5041 50.624C43.9526 56.1471 44.0681 56.4214 44.2821 56.9294C44.4717 57.3795 44.4962 57.3778 44.4795 57.4668C44.4351 57.703 44.3517 57.6606 42.3131 58.6117C41.3504 59.061 41.2476 59.0293 41.1539 59.0008C40.9776 58.9467 41.0375 58.8776 40.3716 57.4414C40.2288 57.1336 39.0614 54.4754 38.948 54.2172C37.6367 51.2313 37.5507 51.2372 37.6038 50.9822C37.6484 50.7682 37.7529 50.8592 39.7885 49.9507C40.492 49.6368 40.7754 49.3271 41.0074 49.5731C41.1339 49.7071 41.3759 50.3177 41.5041 50.624Z" fill="white"/>
<path fill-rule="evenodd" clip-rule="evenodd" d="M48.938 44.5149C49.2321 44.7794 51.2654 46.607 52.6026 47.8348C54.2021 49.3032 54.3235 49.2979 54.2494 49.6021C54.2251 49.7026 54.2019 49.6926 52.2533 51.8648C51.9596 52.1923 51.8789 52.2691 51.5379 51.9909C51.31 51.8049 47.892 48.6865 46.965 47.8572C46.7924 47.7029 46.4767 47.4081 46.4347 47.3687C45.572 46.563 45.0956 46.4106 45.5198 45.9608C45.731 45.7372 46.3686 45.151 47.381 43.9045C47.6452 43.5792 47.7538 43.4389 48.2319 43.8619C48.5935 44.182 48.5744 44.197 48.938 44.5149Z" fill="white"/>
</svg>
