<svg width="20" height="47" viewBox="0 0 20 47" fill="none" xmlns="http://www.w3.org/2000/svg">
<path d="M1.94336 0.788086C2.33806 0.778334 2.90029 0.805463 3.70605 0.849609C4.49932 0.893071 5.49991 0.950602 6.73242 0.994141C9.20046 1.08132 12.5951 1.11287 17.1807 0.869141C17.9158 0.830055 18.3661 0.880434 18.6416 0.96875C18.8805 1.04538 18.9643 1.14065 19.0195 1.24316C19.098 1.38881 19.1582 1.63337 19.1846 2.0752C19.1978 2.29708 19.2018 2.5338 19.2031 2.79883L19.207 3.69434C19.1856 24.5522 19.2312 35.0059 19.207 40.3467C19.1949 43.0266 19.1645 44.3833 19.1035 45.1143C19.0728 45.4821 19.038 45.6356 19.0166 45.7002C19.0088 45.7238 19.0149 45.7195 18.9688 45.7754C18.9344 45.8169 18.8766 45.8916 18.5537 45.9658C18.1916 46.0491 17.6002 46.1071 16.5674 46.1396C14.5146 46.2044 10.9726 46.1677 4.61328 46.1748C4.32721 46.1752 4.04153 46.1834 3.77051 46.1924C3.4955 46.2015 3.23733 46.2113 2.9873 46.2139C2.47976 46.219 2.07196 46.1945 1.74902 46.1113C1.44174 46.0321 1.25786 45.9113 1.13574 45.748C1.00692 45.5756 0.875744 45.2603 0.862305 44.6611C0.795369 41.6753 0.959908 41.7133 0.862305 7.24707C0.859359 6.19655 0.818215 5.20241 0.797852 4.35156C0.77703 3.48152 0.778178 2.76186 0.847656 2.18164C0.918478 1.59037 1.04934 1.25481 1.19922 1.07031C1.30035 0.945938 1.45678 0.830894 1.78906 0.796875L1.94336 0.788086Z" stroke="white" stroke-width="1.57171"/>
</svg>
