<svg width="47" height="47" viewBox="0 0 47 47" fill="none" xmlns="http://www.w3.org/2000/svg">
<path d="M46.3682 15.5139C46.3781 15.9119 46.3507 16.4755 46.3066 17.2717C46.2632 18.058 46.2056 19.0483 46.1621 20.2678C46.0751 22.7095 46.0436 26.0686 46.2871 30.6077C46.3266 31.3424 46.2769 31.809 46.1807 32.1067C46.0939 32.375 45.9756 32.4925 45.833 32.5686C45.6557 32.6632 45.3822 32.7238 44.9346 32.7502C44.7098 32.7635 44.4689 32.7674 44.2012 32.7688L43.3076 32.7727C22.4495 32.7514 11.9934 32.7966 6.65234 32.7727C3.97413 32.7607 2.61063 32.7312 1.87207 32.6702C1.50109 32.6395 1.33223 32.6037 1.24902 32.5764C1.19877 32.5599 1.18595 32.5516 1.12305 32.5002C1.04891 32.4395 0.960193 32.35 0.880859 32.0081C0.794173 31.6342 0.736693 31.0354 0.704101 30.012C0.639248 27.975 0.676089 24.4609 0.668945 18.1633C0.668592 17.8825 0.660341 17.6018 0.651367 17.3332C0.642283 17.0614 0.632426 16.8038 0.629883 16.554C0.624738 16.048 0.649031 15.6275 0.737305 15.2883C0.82221 14.9623 0.957064 14.7463 1.15625 14.5989C1.36339 14.4456 1.71534 14.3109 2.33594 14.2971C5.32304 14.2308 5.29257 14.3938 39.752 14.2971C40.8004 14.2942 41.7897 14.2539 42.6445 14.2336C43.5145 14.213 44.2449 14.2131 44.8379 14.2834C45.4398 14.3549 45.8113 14.49 46.0303 14.6663C46.2145 14.8146 46.3566 15.0456 46.3682 15.5139Z" stroke="white" stroke-width="1.25914"/>
<path d="M15.938 0.631836C16.336 0.621913 16.8996 0.649334 17.6958 0.693359C18.4821 0.736835 19.4724 0.794412 20.6919 0.837891C23.1335 0.924933 26.4927 0.956363 31.0317 0.712891C31.7665 0.673446 32.233 0.723082 32.5308 0.819336C32.799 0.906129 32.9166 1.02439 32.9927 1.16699C33.0873 1.34428 33.1479 1.61778 33.1743 2.06543C33.1876 2.29022 33.1915 2.53111 33.1929 2.79883L33.1968 3.69238C33.1755 24.5505 33.2207 35.0066 33.1968 40.3477C33.1848 43.0259 33.1553 44.3894 33.0942 45.1279C33.0636 45.4989 33.0278 45.6678 33.0005 45.751C32.984 45.8012 32.9757 45.814 32.9243 45.877C32.8636 45.9511 32.7741 46.0398 32.4321 46.1191C32.0583 46.2058 31.4595 46.2633 30.436 46.2959C28.399 46.3608 24.885 46.3239 18.5874 46.3311C18.3065 46.3314 18.0259 46.3397 17.7573 46.3486C17.4855 46.3577 17.2279 46.3676 16.978 46.3701C16.4721 46.3753 16.0516 46.351 15.7124 46.2627C15.3864 46.1778 15.1704 46.0429 15.0229 45.8438C14.8696 45.6366 14.7349 45.2847 14.7212 44.6641C14.6548 41.677 14.8179 41.7074 14.7212 7.24805C14.7183 6.19956 14.678 5.21029 14.6577 4.35547C14.6371 3.48548 14.6372 2.75508 14.7075 2.16211C14.779 1.56017 14.9141 1.1887 15.0903 0.969727C15.2387 0.78547 15.4696 0.643441 15.938 0.631836Z" stroke="white" stroke-width="1.25914"/>
</svg>
