<svg width="56" height="47" viewBox="0 0 56 47" fill="none" xmlns="http://www.w3.org/2000/svg">
<path d="M1.93457 0.645752C2.33494 0.635834 2.90233 0.664207 3.7041 0.708252C4.49555 0.75173 5.49212 0.809305 6.71973 0.852783C9.17745 0.939825 12.5583 0.971248 17.127 0.727783C17.8662 0.688351 18.3353 0.737364 18.6338 0.833252C18.9021 0.919505 19.0173 1.03656 19.0918 1.17505C19.1853 1.34907 19.2469 1.61969 19.2734 2.06665C19.2868 2.29114 19.2906 2.53161 19.292 2.79907L19.2959 3.69263C19.2745 24.5509 19.32 35.0069 19.2959 40.3479C19.2838 43.0258 19.2537 44.3884 19.1924 45.1262C19.1616 45.4967 19.1254 45.6641 19.0986 45.7454C19.083 45.7928 19.0766 45.8042 19.0254 45.8665C18.9665 45.9379 18.8786 46.0256 18.5352 46.1047C18.1596 46.1913 17.5578 46.2489 16.5273 46.2815C14.4772 46.3464 10.9407 46.3095 4.60156 46.3167C4.31871 46.317 4.03597 46.3262 3.76562 46.3352C3.49205 46.3443 3.23274 46.3532 2.98145 46.3557C2.47228 46.3609 2.04955 46.3373 1.70898 46.2493C1.3816 46.1646 1.16671 46.0303 1.02051 45.8342C0.86863 45.6304 0.733511 45.2824 0.719727 44.6643C0.652938 41.6772 0.817054 41.7091 0.719727 7.24829C0.716803 6.19971 0.67567 5.21001 0.655273 4.35571C0.63451 3.48586 0.635448 2.75677 0.706055 2.16528C0.777802 1.56452 0.913068 1.19649 1.08789 0.980713C1.23449 0.799796 1.46397 0.657337 1.93457 0.645752Z" stroke="white" stroke-width="1.28761"/>
<path d="M51.3643 15.5146C51.3742 15.9117 51.3461 16.4741 51.3018 17.2705C51.258 18.0568 51.2 19.0477 51.1562 20.2676C51.0686 22.7097 51.0371 26.069 51.2822 30.6084C51.3219 31.3425 51.2717 31.8069 51.1758 32.1016C51.0898 32.3655 50.9732 32.4798 50.832 32.5547C50.6551 32.6485 50.3812 32.7099 49.9307 32.7363C49.7047 32.7496 49.4625 32.7535 49.1934 32.7549L48.293 32.7578C27.2987 32.7365 16.7743 32.7817 11.3984 32.7578C8.7026 32.7458 7.33 32.7163 6.58691 32.6553C6.21422 32.6246 6.04492 32.5895 5.96191 32.5625C5.91256 32.5464 5.90075 32.5383 5.83789 32.4873C5.76581 32.4286 5.67874 32.3427 5.59961 32.0039C5.51276 31.632 5.45469 31.0352 5.42187 30.0117C5.3566 27.9752 5.39391 24.4614 5.38672 18.1631C5.38636 17.8818 5.3772 17.6006 5.36816 17.332C5.35902 17.0602 5.34924 16.8031 5.34668 16.5537C5.34151 16.0481 5.36588 15.6298 5.4541 15.293C5.53877 14.9698 5.67317 14.7569 5.87109 14.6113C6.05174 14.4785 6.34392 14.3593 6.83203 14.3223L7.05371 14.3115C10.0605 14.2452 10.029 14.4082 44.7148 14.3115C45.7702 14.3086 46.7658 14.2673 47.626 14.2471C48.5015 14.2264 49.2357 14.2276 49.832 14.2979C50.438 14.3693 50.811 14.5031 51.0293 14.6777C51.2116 14.8235 51.3527 15.0508 51.3643 15.5146Z" stroke="white" stroke-width="1.28761"/>
<path d="M37.9878 0.645508C38.3882 0.63559 38.9555 0.663963 39.7573 0.708008C40.5488 0.751486 41.5453 0.809061 42.7729 0.852539C45.2307 0.939581 48.6115 0.971003 53.1802 0.727539C53.9195 0.688107 54.3885 0.73712 54.687 0.833008C54.9554 0.91926 55.0705 1.03632 55.145 1.1748C55.2385 1.34883 55.3001 1.61945 55.3267 2.06641C55.34 2.2909 55.3438 2.53137 55.3452 2.79883L55.3491 3.69238C55.3277 24.5506 55.3732 35.0066 55.3491 40.3477C55.337 43.0255 55.307 44.3882 55.2456 45.126C55.2148 45.4965 55.1787 45.6639 55.1519 45.7451C55.1362 45.7926 55.1298 45.804 55.0786 45.8662C55.0197 45.9377 54.9318 46.0253 54.5884 46.1045C54.2128 46.1911 53.611 46.2486 52.5806 46.2812C50.5304 46.3461 46.9939 46.3093 40.6548 46.3164C40.3719 46.3168 40.0892 46.326 39.8188 46.335C39.5453 46.344 39.286 46.3529 39.0347 46.3555C38.5255 46.3606 38.1028 46.3371 37.7622 46.249C37.4348 46.1643 37.2199 46.0301 37.0737 45.834C36.9219 45.6302 36.7867 45.2821 36.7729 44.6641C36.7062 41.6769 36.8703 41.7089 36.7729 7.24805C36.77 6.19947 36.7289 5.20977 36.7085 4.35547C36.6877 3.48562 36.6887 2.75653 36.7593 2.16504C36.831 1.56427 36.9663 1.19625 37.1411 0.980469C37.2877 0.799552 37.5172 0.657093 37.9878 0.645508Z" stroke="white" stroke-width="1.28761"/>
</svg>
